<svg xmlns="http://www.w3.org/2000/svg" width="44.559" height="44.56" viewBox="0 0 44.559 44.56">
  <g id="Group_766" data-name="Group 766" transform="translate(-137 -4996.252)">
    <rect id="Rectangle_30" data-name="Rectangle 30" width="44.559" height="44.559" rx="4" transform="translate(137 4996.252)" fill="#795151"/>
    <g id="Group_61" data-name="Group 61" transform="translate(148.142 5010.803)">
      <path id="Path_16" data-name="Path 16" d="M29.185,95.208a3.344,3.344,0,0,1-3.724,0L16.333,89.12l-.149-.1v9.972a2.047,2.047,0,0,0,2.05,2.05h18.18a2.049,2.049,0,0,0,2.05-2.05V89.017l-.149.1Z" transform="translate(-16.184 -84.355)" fill="#fff"/>
      <path id="Path_17" data-name="Path 17" d="M17.056,91.567l9.129,6.087a2.041,2.041,0,0,0,2.277,0l9.129-6.087a1.952,1.952,0,0,0,.872-1.628,2.052,2.052,0,0,0-2.05-2.05H18.234a2.049,2.049,0,0,0-2.05,2.05A1.952,1.952,0,0,0,17.056,91.567Z" transform="translate(-16.184 -87.889)" fill="#fff"/>
    </g>
  </g>
</svg>
