<svg xmlns="http://www.w3.org/2000/svg" width="44.559" height="44.56" viewBox="0 0 44.559 44.56">
  <g id="Group_767" data-name="Group 767" transform="translate(-137 -4934.693)">
    <rect id="Rectangle_29" data-name="Rectangle 29" width="44.559" height="44.559" rx="4" transform="translate(137 4934.693)" fill="#795151"/>
    <path id="Path_15" data-name="Path 15" d="M16.184,74.385A20.188,20.188,0,0,0,36.372,94.577a1.045,1.045,0,0,0,1.021-.81l1.041-4.525a1.054,1.054,0,0,0-.608-1.2l-4.872-2.087a1.048,1.048,0,0,0-1.219.3l-2.157,2.637a16.114,16.114,0,0,1-7.712-7.707L24.5,79.018a1.04,1.04,0,0,0,.3-1.215l-2.091-4.877a1.051,1.051,0,0,0-1.194-.6l-4.525,1.046A1.04,1.04,0,0,0,16.184,74.385Z" transform="translate(131.957 4873.588)" fill="#fff"/>
  </g>
</svg>
